<svg width="30" height="30" viewBox="0 0 30 30" fill="none" xmlns="http://www.w3.org/2000/svg">
<path d="M13.75 21.25L16.25 23.75C16.4962 23.9962 16.7885 24.1915 17.1103 24.3248C17.432 24.4581 17.7768 24.5267 18.125 24.5267C18.4732 24.5267 18.818 24.4581 19.1397 24.3248C19.4615 24.1915 19.7538 23.9962 20 23.75C20.2462 23.5038 20.4415 23.2115 20.5748 22.8897C20.7081 22.568 20.7767 22.2232 20.7767 21.875C20.7767 21.5268 20.7081 21.182 20.5748 20.8603C20.4415 20.5385 20.2462 20.2462 20 20" stroke="black" stroke-width="2" stroke-linecap="round" stroke-linejoin="round"/>
<path d="M17.5 17.5L20.625 20.625C21.1223 21.1223 21.7968 21.4016 22.5 21.4016C23.2033 21.4016 23.8778 21.1223 24.375 20.625C24.8723 20.1277 25.1517 19.4532 25.1517 18.75C25.1517 18.0467 24.8723 17.3723 24.375 16.875L19.525 12.025C18.8219 11.3227 17.8688 10.9283 16.875 10.9283C15.8813 10.9283 14.9282 11.3227 14.225 12.025L13.125 13.125C12.6278 13.6223 11.9533 13.9016 11.25 13.9016C10.5468 13.9016 9.87232 13.6223 9.37504 13.125C8.87776 12.6277 8.59839 11.9532 8.59839 11.25C8.59839 10.5467 8.87776 9.87227 9.37504 9.37499L12.8875 5.86249C14.0278 4.72517 15.5149 4.00068 17.1133 3.8037C18.7118 3.60673 20.3302 3.94853 21.7125 4.77499L22.3 5.12499C22.8323 5.44622 23.4651 5.55763 24.075 5.43749L26.25 4.99999" stroke="black" stroke-width="2" stroke-linecap="round" stroke-linejoin="round"/>
<path d="M26.25 3.75L27.5 17.5H25" stroke="black" stroke-width="2" stroke-linecap="round" stroke-linejoin="round"/>
<path d="M3.75 3.75L2.5 17.5L10.625 25.625C11.1223 26.1223 11.7967 26.4017 12.5 26.4017C13.2033 26.4017 13.8777 26.1223 14.375 25.625C14.8723 25.1277 15.1517 24.4533 15.1517 23.75C15.1517 23.0467 14.8723 22.3723 14.375 21.875" stroke="black" stroke-width="2" stroke-linecap="round" stroke-linejoin="round"/>
<path d="M3.75 5H13.75" stroke="black" stroke-width="2" stroke-linecap="round" stroke-linejoin="round"/>
</svg>
