<svg width="30" height="30" viewBox="0 0 30 30" fill="none" xmlns="http://www.w3.org/2000/svg">
<path d="M15 27.5C8.09644 27.5 2.5 21.9036 2.5 15C2.5 8.09644 8.09644 2.5 15 2.5C21.9036 2.5 27.5 8.09644 27.5 15C27.5 21.9036 21.9036 27.5 15 27.5Z" stroke="black" stroke-width="2" stroke-linecap="round" stroke-linejoin="round"/>
<path d="M15 16.25C12.9289 16.25 11.25 14.5711 11.25 12.5C11.25 10.4289 12.9289 8.75 15 8.75C17.0711 8.75 18.75 10.4289 18.75 12.5C18.75 14.5711 17.0711 16.25 15 16.25Z" stroke="black" stroke-width="2" stroke-linecap="round" stroke-linejoin="round"/>
<path d="M21.25 25.8275V23.75C21.25 23.087 20.9866 22.4511 20.5178 21.9822C20.0489 21.5134 19.413 21.25 18.75 21.25H11.25C10.587 21.25 9.95107 21.5134 9.48223 21.9822C9.01339 22.4511 8.75 23.087 8.75 23.75V25.8275" stroke="black" stroke-width="2" stroke-linecap="round" stroke-linejoin="round"/>
</svg>
