<svg width="32" height="32" viewBox="0 0 32 32" fill="none" xmlns="http://www.w3.org/2000/svg">
<path d="M14.005 0L12.01 4.74813C11.611 4.86783 11.2519 5.06733 10.8928 5.26683L6.14464 3.27182L3.27182 6.14464L5.26683 10.8928C5.06733 11.2918 4.90773 11.611 4.74813 12.01L0 14.005V17.995L4.74813 19.99C4.90773 20.389 5.06733 20.7082 5.26683 21.1072L3.27182 25.8554L6.14464 28.7282L10.8928 26.7332C11.2519 26.8928 11.611 27.0923 12.01 27.2519L14.005 32H17.995L19.99 27.2519C20.3491 27.0923 20.7481 26.9327 21.1072 26.7332L25.8554 28.7282L28.7282 25.8554L26.7332 21.1072C26.8928 20.7481 27.0923 20.3491 27.2519 19.99L32 17.995V14.005L27.2519 12.01C27.1322 11.6509 26.9327 11.2519 26.7332 10.8928L28.7282 6.14464L25.8554 3.27182L21.1072 5.26683C20.7481 5.10723 20.3491 4.90773 19.99 4.74813L17.995 0L14.005 0ZM16 9.97506C19.3117 9.97506 21.985 12.6484 21.985 15.9601C21.985 19.2718 19.3117 21.9451 16 21.9451C12.6883 21.9451 10.015 19.2718 10.015 15.9601C10.015 12.6484 12.6883 9.97506 16 9.97506Z" fill="white"/>
</svg>
