<svg width="208" height="208" viewBox="0 0 208 208" fill="none" xmlns="http://www.w3.org/2000/svg">
<circle cx="104" cy="104" r="104" fill="#01EB53"/>
<path d="M0 110H208C208 164.124 164.124 208 110 208H98C43.8761 208 0 164.124 0 110Z" fill="#027823"/>
<path d="M158 158C161.58 158 165.014 156.578 167.546 154.046C170.078 151.514 171.5 148.08 171.5 144.5V77C171.5 73.4196 170.078 69.9858 167.546 67.4541C165.014 64.9223 161.58 63.5 158 63.5H104.675C102.417 63.5221 100.19 62.9776 98.197 61.9163C96.2041 60.855 94.5092 59.3108 93.2675 57.425L87.8 49.325C86.5708 47.4584 84.8973 45.9262 82.9299 44.8659C80.9624 43.8056 78.7625 43.2504 76.5275 43.25H50C46.4196 43.25 42.9858 44.6723 40.4541 47.2041C37.9223 49.7358 36.5 53.1696 36.5 56.75V144.5C36.5 148.08 37.9223 151.514 40.4541 154.046C42.9858 156.578 46.4196 158 50 158H158Z" stroke="white" stroke-width="8" stroke-linecap="round" stroke-linejoin="round"/>
<path d="M36.5 90.5H171.5" stroke="white" stroke-width="8" stroke-linecap="round" stroke-linejoin="round"/>
</svg>
